# Blender v2.78 (sub 0) OBJ File: ''
# www.blender.org
mtllib spaceBoxxx.mtl
o Cube
v 10.000000 9.999997 10.000002
v 10.000000 10.000003 -9.999997
v -10.000001 10.000003 -9.999995
v -9.999996 9.999997 10.000007
v 10.000005 -10.000003 9.999991
v 9.999993 -9.999997 -10.000009
v -10.000004 -9.999997 -9.999999
v -9.999999 -10.000003 9.999997
vt 0.2500 0.9949
vt 0.2500 0.6650
vt 0.5000 0.6650
vt 0.5000 0.9949
vt 0.2500 0.0051
vt 0.5000 0.0051
vt 0.5000 0.3351
vt 0.2500 0.3351
vt 0.0001 0.6650
vt 0.0001 0.3351
vt 0.7500 0.3350
vt 0.7500 0.6650
vt 0.9999 0.3350
vt 0.9999 0.6650
vn 0.0000 1.0000 0.0000
vn -0.0000 -1.0000 -0.0000
vn 1.0000 -0.0000 -0.0000
vn -0.0000 0.0000 -1.0000
vn -1.0000 0.0000 0.0000
vn 0.0000 -0.0000 1.0000
usemtl Material.002
s off
f 1/1/1 2/2/1 3/3/1 4/4/1
f 5/5/2 8/6/2 7/7/2 6/8/2
f 1/9/3 5/10/3 6/8/3 2/2/3
f 2/2/4 6/8/4 7/7/4 3/3/4
f 3/3/5 7/7/5 8/11/5 4/12/5
f 5/13/6 1/14/6 4/12/6 8/11/6
